<?xml version="1.0" standalone="no"?>
<!DOCTYPE svg PUBLIC "-//W3C//DTD SVG 20010904//EN"
 "http://www.w3.org/TR/2001/REC-SVG-20010904/DTD/svg10.dtd">
<svg version="1.0" xmlns="http://www.w3.org/2000/svg"
 width="720.000000pt" height="720.000000pt" viewBox="0 0 720.000000 720.000000"
 preserveAspectRatio="xMidYMid meet">
<metadata>
Created by potrace 1.11, written by Peter Selinger 2001-2013
</metadata>
<g transform="translate(0.000000,720.000000) scale(0.100000,-0.100000)"
fill="#000000" stroke="none">
<path d="M2900 7181 c-152 -41 -264 -129 -335 -262 -63 -120 -79 -258 -44
-384 38 -136 145 -263 274 -325 216 -105 447 -67 615 100 206 206 206 523 -1
731 -68 69 -174 130 -249 144 -81 15 -195 13 -260 -4z"/>
<path d="M4585 6513 c-262 -81 -341 -105 -438 -134 -84 -25 -106 -36 -103 -48
2 -9 14 -47 25 -86 25 -81 109 -376 121 -420 5 -16 34 -118 65 -225 31 -107
58 -202 60 -210 7 -27 43 -145 50 -162 16 -41 -7 -13 -42 49 -21 38 -42 76
-48 85 -5 9 -20 35 -32 57 -12 22 -70 123 -128 225 l-106 185 -122 82 c-67 46
-123 86 -125 91 -2 4 -8 8 -14 8 -5 0 -45 25 -87 54 l-78 55 -389 -259 c-388
-259 -389 -260 -405 -307 -23 -65 -168 -484 -268 -771 -44 -128 -86 -244 -93
-259 -9 -19 -104 -84 -333 -225 -176 -109 -330 -204 -342 -211 -18 -9 -375
-230 -432 -266 -11 -7 -7 -19 21 -62 19 -30 77 -124 128 -209 52 -85 95 -157
96 -159 2 -2 40 20 84 48 44 28 83 51 85 51 6 0 930 -1852 930 -1865 1 -5 -5
-32 -11 -60 -7 -27 -15 -67 -18 -87 -3 -21 -10 -57 -15 -80 -5 -24 -12 -59
-15 -78 -3 -19 -8 -46 -12 -60 -3 -14 -7 -37 -10 -53 -2 -15 -10 -55 -18 -90
-8 -34 -17 -79 -20 -99 -3 -21 -10 -57 -15 -80 -6 -24 -12 -56 -15 -73 -25
-135 -33 -180 -41 -215 -3 -14 -8 -36 -11 -50 -3 -14 -7 -36 -10 -50 -8 -48
-17 -95 -21 -110 -2 -8 -5 -26 -7 -40 -2 -14 -7 -36 -10 -50 -3 -14 -8 -38
-11 -54 -2 -16 -9 -54 -16 -84 -6 -29 -9 -55 -7 -57 3 -3 251 -42 328 -51 19
-3 62 -9 95 -14 33 -5 78 -12 100 -15 22 -3 50 -8 63 -10 12 -3 22 -2 23 2 1
15 7 40 39 158 18 66 34 128 35 138 2 9 6 21 9 25 3 5 7 19 10 33 3 13 13 55
23 92 l18 68 60 -101 c33 -55 112 -186 175 -290 l115 -190 100 0 100 0 28 78
c15 43 27 83 27 89 0 12 -45 108 -186 401 -46 95 -84 175 -84 177 0 1 -45 95
-99 208 l-99 205 29 148 c16 82 31 167 35 189 3 22 7 42 9 45 2 3 6 23 9 45
15 100 28 133 64 168 20 19 196 197 391 396 195 198 357 361 360 361 4 0 23
-48 43 -108 21 -59 51 -143 67 -187 16 -44 48 -134 71 -200 37 -105 89 -214
190 -400 48 -88 96 -178 137 -255 65 -121 253 -470 288 -535 120 -222 169
-312 215 -400 29 -55 63 -118 75 -140 12 -22 43 -80 70 -130 74 -137 56 -128
160 -83 50 21 114 50 143 63 29 14 54 25 57 25 2 0 36 15 77 34 40 18 90 41
110 49 44 18 50 -10 -57 277 -42 113 -82 221 -89 240 -30 83 -327 886 -333
900 -3 8 -7 17 -7 20 -1 3 -9 25 -19 50 -9 25 -46 126 -82 225 -37 99 -75 203
-85 230 -11 28 -78 209 -150 404 l-131 354 -5 241 c-7 346 -13 547 -18 576 -2
14 -7 39 -10 55 -7 41 -14 83 -21 130 -3 23 -8 52 -10 65 -5 23 -31 182 -40
240 -3 14 -11 65 -19 115 -8 49 -14 90 -13 91 1 0 115 34 252 74 138 40 253
75 257 79 3 3 -11 62 -33 131 -21 69 -38 126 -38 128 1 2 -4 15 -9 30 -9 22
-65 205 -167 542 -8 25 -34 110 -60 191 -25 80 -47 154 -50 165 -2 10 -28 93
-56 184 -28 91 -61 199 -74 240 -13 41 -40 130 -61 198 -28 91 -41 122 -53
121 -9 -1 -52 -12 -96 -26z m-1313 -2288 c39 -60 99 -153 133 -205 176 -271
163 -244 170 -354 l5 -98 -67 -117 c-163 -284 -449 -781 -481 -836 -81 -143
-100 -178 -175 -329 -43 -88 -82 -155 -87 -150 -17 19 -751 1496 -748 1506 4
10 97 46 233 92 22 8 85 30 140 51 55 20 163 59 240 86 l140 50 50 92 c28 51
69 126 93 167 23 41 48 86 55 100 7 14 36 69 66 124 l54 98 54 -83 c30 -46 86
-133 125 -194z"/>
</g>
</svg>
